<?xml version="1.0" encoding="UTF-8"?>
<svg version="1.1" xmlns="http://www.w3.org/2000/svg" width="512" height="512">
<path d="M0 0 C1.8984375 0.40625 1.8984375 0.40625 4.2734375 1.84375 C6.26589109 4.98569605 6.86696471 7.84335397 7.50390625 11.48046875 C7.71407355 13.40548707 7.71407355 13.40548707 8.8984375 14.40625 C9.2490625 13.2925 9.5996875 12.17875 9.9609375 11.03125 C11.37186328 7.75683734 11.77105862 7.46873775 15.2109375 5.78125 C19.61037645 5.33384943 21.36159597 5.77418188 24.8984375 8.40625 C26.2734375 11.59375 26.2734375 11.59375 26.8984375 14.40625 C28.81137796 11.1269235 29.52217993 7.8957307 30.23828125 4.2109375 C30.8984375 2.40625 30.8984375 2.40625 33.8984375 0.40625 C36.91394677 0.07119341 38.99727294 -0.15413591 41.8984375 0.40625 C44.9940277 2.96011192 45.76702422 4.58491701 46.3984375 8.53125 C45.37050173 16.4977522 42.83449806 23.86592681 36.8984375 29.40625 C29.23886303 34.40625 29.23886303 34.40625 25.8984375 34.40625 C25.8984375 35.72625 25.8984375 37.04625 25.8984375 38.40625 C26.8265625 38.65375 27.7546875 38.90125 28.7109375 39.15625 C32.15371849 40.50636019 33.36521867 41.06924432 34.8984375 44.40625 C34.77632527 47.88644859 34.55436996 50.38955469 32.6484375 53.34375 C30.8984375 54.40625 30.8984375 54.40625 25.8984375 54.40625 C26.2284375 66.94625 26.5584375 79.48625 26.8984375 92.40625 C35.79072342 83.47369434 35.79072342 83.47369434 40.3984375 72.6875 C40.6459375 71.59050781 40.8934375 70.49351563 41.1484375 69.36328125 C41.5196875 67.65205078 41.5196875 67.65205078 41.8984375 65.90625 C42.38926875 63.64382471 42.88892854 61.3832923 43.3984375 59.125 C43.72328125 57.62356445 43.72328125 57.62356445 44.0546875 56.09179688 C44.94350317 53.26281182 45.86450545 51.55379574 47.8984375 49.40625 C53.32348774 47.91239559 56.95439941 48.70005384 62.1484375 50.65625 C63.34984375 51.09453125 64.55125 51.5328125 65.7890625 51.984375 C68.54053446 53.2425858 70.08978804 54.04061161 71.8984375 56.40625 C72.94068023 59.45280567 73.0230118 60.99419654 72.0859375 64.09375 C70.8984375 66.40625 70.8984375 66.40625 68.8984375 68.40625 C66.515625 68.6015625 66.515625 68.6015625 63.7734375 68.53125 C62.86335938 68.51320313 61.95328125 68.49515625 61.015625 68.4765625 C60.31695312 68.45335938 59.61828125 68.43015625 58.8984375 68.40625 C58.69089844 69.52902344 58.48335938 70.65179688 58.26953125 71.80859375 C56.46418495 80.8162264 54.66120191 87.73846824 47.8984375 94.40625 C52.98335111 95.27629225 57.12997776 95.47789132 61.64453125 92.7421875 C68.18985285 86.78464972 70.96239654 80.32389467 73.66015625 72.140625 C77.16880455 61.55933863 77.16880455 61.55933863 81.8984375 58.40625 C86.438619 57.97414997 89.49365355 58.78390445 93.5859375 60.71875 C94.98392578 61.36263672 94.98392578 61.36263672 96.41015625 62.01953125 C99.68349125 63.84376033 101.4895174 65.2109451 102.7109375 68.78125 C102.93595206 71.9314538 102.39392936 73.63959006 100.8984375 76.40625 C97.54516111 78.64176759 96.99100093 78.57908528 93.2109375 78.03125 C92.40269531 77.92039062 91.59445312 77.80953125 90.76171875 77.6953125 C90.14683594 77.59992188 89.53195312 77.50453125 88.8984375 77.40625 C88.75148438 78.2415625 88.75148438 78.2415625 88.6015625 79.09375 C87.17594776 86.36930107 84.68781498 92.65899702 79.8984375 98.40625 C80.7028125 99.355 81.5071875 100.30375 82.3359375 101.28125 C85.92120536 105.51002748 86.02632096 108.57927542 85.9609375 114.03125 C85.95642578 114.73765625 85.95191406 115.4440625 85.94726562 116.171875 C85.93547625 117.91670275 85.91754074 119.661487 85.8984375 121.40625 C87.15503174 121.38530273 88.41162598 121.36435547 89.70629883 121.34277344 C94.36340971 121.27043501 99.02047084 121.22447266 103.67797852 121.18652344 C105.69466499 121.16639391 107.71129301 121.13908763 109.7277832 121.10449219 C112.62465832 121.05603278 115.52076265 121.03329501 118.41796875 121.015625 C119.77279106 120.98465729 119.77279106 120.98465729 121.15498352 120.95306396 C127.40209893 120.95081878 127.40209893 120.95081878 129.96606445 123.3034668 C131.57143614 126.92406547 131.27476858 129.45477367 130.8984375 133.40625 C129.7462616 135.13105774 129.7462616 135.13105774 127.8984375 136.40625 C125.22187805 136.76701355 125.22187805 136.76701355 121.95825195 136.74682617 C120.73721268 136.74659958 119.5161734 136.74637299 118.25813293 136.74613953 C116.27990791 136.72291374 116.27990791 136.72291374 114.26171875 136.69921875 C112.89837612 136.69362243 111.53502746 136.6893525 110.17167664 136.68635559 C106.58600158 136.67490949 103.00069196 136.64544486 99.41516113 136.61224365 C95.75534 136.58153739 92.09545973 136.5678491 88.43554688 136.55273438 C81.25634394 136.52057449 74.07744196 136.46938153 66.8984375 136.40625 C66.8984375 139.70625 66.8984375 143.00625 66.8984375 146.40625 C119.0384375 146.07625 171.1784375 145.74625 224.8984375 145.40625 C224.8984375 142.76625 224.8984375 140.12625 224.8984375 137.40625 C224.01560593 137.40038376 223.13277435 137.39451752 222.22319031 137.38847351 C213.90932348 137.3306053 205.595727 137.25856263 197.28212261 137.17053509 C193.0078437 137.12577912 188.73366125 137.08653476 184.45922852 137.05981445 C180.33528328 137.03383327 176.21170824 136.99346831 172.08799171 136.94306374 C170.51355399 136.92635977 168.93905219 136.9148675 167.36453819 136.90863609 C165.16149322 136.89903294 162.95940288 136.87102156 160.7565918 136.83862305 C158.87462349 136.82196846 158.87462349 136.82196846 156.95463562 136.80497742 C153.8984375 136.40625 153.8984375 136.40625 152.02058411 135.02766418 C150.46844407 132.78494308 150.09272386 131.12625898 149.8984375 128.40625 C150.8346 125.30971249 151.60267072 123.70201678 153.8984375 121.40625 C156.33537826 121.19759591 158.65970891 121.11257992 161.09863281 121.11572266 C162.21115166 121.10564682 162.21115166 121.10564682 163.34614563 121.09536743 C165.80635217 121.07631858 168.26628672 121.0724593 170.7265625 121.0703125 C172.43569044 121.06388748 174.14481727 121.05715934 175.85394287 121.05014038 C179.44187976 121.03814908 183.02972026 121.03446127 186.61767578 121.03564453 C191.20891113 121.0358474 195.79952524 121.00858712 200.39061356 120.97410011 C203.9234499 120.95182433 207.45613718 120.94780725 210.98903656 120.94886398 C212.68107995 120.94650743 214.37312742 120.93768081 216.06510162 120.92219925 C218.43739254 120.9025324 220.80835021 120.90837986 223.18066406 120.92041016 C223.87595718 120.90917114 224.57125031 120.89793213 225.28761292 120.88635254 C230.26553867 120.95027885 233.06038615 122.30193988 236.8984375 125.40625 C242.30866925 132.27870655 242.35999066 138.95253949 241.8984375 147.40625 C240.69432095 154.19308874 237.87055727 157.30401894 232.3359375 161.21875 C229.8984375 162.40625 229.8984375 162.40625 225.8984375 162.40625 C225.8984375 165.70625 225.8984375 169.00625 225.8984375 172.40625 C227.14979492 172.38530273 228.40115234 172.36435547 229.69042969 172.34277344 C234.33451895 172.27035606 238.97855833 172.22444382 243.62304688 172.18652344 C245.63289788 172.16641195 247.64269041 172.13911885 249.65234375 172.10449219 C252.54181346 172.05595366 255.43050941 172.03327678 258.3203125 172.015625 C259.21836609 171.99497986 260.11641968 171.97433472 261.04168701 171.95306396 C267.25328155 171.95083135 267.25328155 171.95083135 270.46191406 174.21582031 C272.60534239 177.4841478 272.50171261 179.58550764 271.8984375 183.40625 C269.5234375 186.34375 269.5234375 186.34375 266.8984375 188.40625 C266.2384375 188.40625 265.5784375 188.40625 264.8984375 188.40625 C264.94484375 189.33566406 264.99125 190.26507813 265.0390625 191.22265625 C265.4144498 204.07967139 265.4144498 204.07967139 260.8984375 209.40625 C257.29973724 212.18668431 254.54874569 213.40625 249.8984375 213.40625 C249.90120288 214.04677937 249.90396826 214.68730873 249.90681744 215.34724808 C249.97305597 230.92912303 250.02270764 246.51094904 250.05387402 262.09292984 C250.06934625 269.62824813 250.0904425 277.16347248 250.12475586 284.69873047 C250.1546474 291.26607982 250.17400991 297.83336114 250.18070298 304.40077662 C250.18461569 307.87854989 250.19381826 311.35612851 250.21562767 314.83383942 C250.2397707 318.71510989 250.24040764 322.59618952 250.23901367 326.47753906 C250.25519241 328.20923088 250.25519241 328.20923088 250.271698 329.97590637 C250.26757401 331.03317429 250.26345001 332.0904422 250.25920105 333.17974854 C250.26196643 334.09785435 250.26473181 335.01596016 250.26758099 335.96188736 C249.82226594 338.91063632 248.94762206 340.26457224 246.8984375 342.40625 C243.29793672 343.58032634 241.61915037 343.73384676 238.1484375 342.15625 C235.69867256 340.25087727 234.06470708 338.68970746 233.65234184 335.50660419 C233.65418543 334.78668387 233.65602901 334.06676355 233.65792847 333.32502747 C233.65380447 332.08196083 233.65380447 332.08196083 233.64959717 330.81378174 C233.65678772 329.90819519 233.66397827 329.00260864 233.67138672 328.06958008 C233.67109467 327.11329208 233.67080261 326.15700409 233.67050171 325.17173767 C233.67189665 322.00632702 233.6874657 318.84115085 233.703125 315.67578125 C233.70685454 313.48288603 233.70970179 311.28998915 233.71170044 309.09709167 C233.71934151 303.32174082 233.73899413 297.54649035 233.7611084 291.7711792 C233.78155659 285.87936766 233.79069996 279.98753991 233.80078125 274.09570312 C233.82223954 262.53250085 233.85742559 250.96939947 233.8984375 239.40625 C226.6384375 239.40625 219.3784375 239.40625 211.8984375 239.40625 C211.8984375 314.31625 211.8984375 389.22625 211.8984375 466.40625 C219.1584375 466.40625 226.4184375 466.40625 233.8984375 466.40625 C233.87749023 463.43343018 233.85654297 460.46061035 233.83496094 457.39770508 C233.76870199 447.57896792 233.72450644 437.76022092 233.69118881 427.94131947 C233.67030818 421.98769626 233.64198132 416.03430199 233.59667969 410.08081055 C233.55323971 404.33606908 233.52930398 398.59154792 233.51892853 392.84665489 C233.5115339 390.65416686 233.49709405 388.46169097 233.47551727 386.26929665 C233.44650848 383.1998546 233.44248052 380.13132451 233.44433594 377.06176758 C233.42995483 376.15402084 233.41557373 375.24627411 233.40075684 374.3110199 C233.42811337 370.13253554 233.550133 367.96696886 235.80181885 364.34208679 C238.06316633 362.25415361 238.87382014 361.74332325 241.8984375 361.84375 C242.5584375 361.84246094 243.2184375 361.84117187 243.8984375 361.83984375 C246.96709924 362.70889835 247.98669406 363.82312411 249.8984375 366.40625 C250.49661535 369.65286295 250.42078895 372.86716593 250.38085938 376.16015625 C250.38672813 377.64369095 250.38672813 377.64369095 250.39271545 379.15719604 C250.39869215 381.30375532 250.39551741 383.45035507 250.3842926 385.59689331 C250.36706603 388.99269415 250.3745193 392.38764105 250.3885498 395.78344727 C250.4182358 404.21615064 250.4049954 412.64869204 250.39337158 421.0814209 C250.38517987 428.20773258 250.39305693 435.33367187 250.42250061 442.45993042 C250.42961207 445.80823715 250.41289465 449.15589485 250.39538574 452.50415039 C250.40109192 454.55355177 250.40790837 456.60295046 250.41601562 458.65234375 C250.40470108 459.5854538 250.39338654 460.51856384 250.38172913 461.47994995 C250.35230803 466.5702186 250.35230803 466.5702186 252.85095215 470.85131836 C253.52662231 471.3644458 254.20229248 471.87757324 254.8984375 472.40625 C257.35035254 477.60307621 257.13344952 482.66217439 257.0234375 488.28125 C257.01441406 489.16039062 257.00539063 490.03953125 256.99609375 490.9453125 C256.97268327 493.0990771 256.9368176 495.25270014 256.8984375 497.40625 C257.68605469 497.37402344 258.47367187 497.34179688 259.28515625 497.30859375 C261.8984375 497.40625 261.8984375 497.40625 263.7109375 498.96875 C265.34333325 502.31945706 265.29312985 504.72245474 264.8984375 508.40625 C263.87387753 510.59353971 263.87387753 510.59353971 261.8984375 512.40625 C259.10834451 512.80615217 256.70912322 512.94339595 253.91639709 512.90961456 C253.08990799 512.91542833 252.26341889 512.92124209 251.41188467 512.92723203 C248.61813113 512.94193167 245.82524254 512.92790071 243.03149414 512.91418457 C241.01813588 512.91878955 239.00478096 512.92513974 236.99143314 512.93309355 C231.43994433 512.94986532 225.88872887 512.94150496 220.33723879 512.92914867 C214.35760888 512.92013249 208.3780274 512.9340508 202.39840698 512.94506836 C191.35507794 512.96186351 180.31182452 512.96035668 169.26849493 512.94942249 C159.06758789 512.93937162 148.86671298 512.93672814 138.665802 512.94151306 C137.65195855 512.94197137 137.65195855 512.94197137 136.61763341 512.94243894 C133.87415077 512.94368424 131.13066815 512.94495783 128.38718555 512.946278 C102.6361107 512.95852191 76.8850917 512.94740764 51.13402547 512.92589041 C28.24133862 512.9069071 5.34874076 512.90860557 -17.54394531 512.92773438 C-43.24705274 512.94913959 -68.9501108 512.95765368 -94.6532259 512.94528532 C-97.39179292 512.94400239 -100.13035996 512.94275104 -102.868927 512.94151306 C-103.54326267 512.94119675 -104.21759833 512.94088044 -104.91236841 512.94055455 C-115.10841171 512.93599914 -125.30441939 512.941336 -135.50045776 512.95143127 C-147.09048857 512.96284935 -158.68043467 512.95966313 -170.27045608 512.9383083 C-176.18873805 512.92776471 -182.10683898 512.92373223 -188.02511978 512.93690491 C-193.43592094 512.9487663 -198.84637212 512.94237014 -204.25714123 512.9209947 C-206.22142219 512.91650197 -208.18573231 512.91885414 -210.14999473 512.92849785 C-212.80693257 512.94054832 -215.46264957 512.92830377 -218.11952209 512.90961456 C-219.28079508 512.92366156 -219.28079508 512.92366156 -220.46552813 512.93799233 C-225.62629103 512.86473696 -225.62629103 512.86473696 -228.07553768 510.50198698 C-229.83341684 506.91137952 -229.48026109 504.38258516 -229.1015625 500.40625 C-227.9140625 498.40625 -227.9140625 498.40625 -226.1015625 497.40625 C-224.43537229 497.36640091 -222.76765801 497.36262066 -221.1015625 497.40625 C-221.13636719 496.11589844 -221.17117187 494.82554687 -221.20703125 493.49609375 C-221.23518592 491.77865894 -221.26248427 490.06120993 -221.2890625 488.34375 C-221.31419922 487.49619141 -221.33933594 486.64863281 -221.36523438 485.77539062 C-221.43011356 480.17415435 -220.80105358 476.34587821 -218.1015625 471.40625 C-217.5799352 470.93775656 -217.05830791 470.46926313 -216.52087373 469.98657292 C-214.66671716 467.92207427 -214.7235455 466.8021242 -214.71680164 464.05467701 C-214.7073451 463.16043799 -214.69788856 462.26619897 -214.68814546 461.34486181 C-214.69299303 460.36140851 -214.69784061 459.37795522 -214.70283508 458.36470032 C-214.69618826 457.32083119 -214.68954143 456.27696206 -214.68269318 455.20146054 C-214.66396884 451.68669951 -214.66667485 448.17227608 -214.66918945 444.6574707 C-214.66017807 442.14473994 -214.64985241 439.6320136 -214.63830566 437.11929321 C-214.61637543 431.70087513 -214.60362928 426.28255798 -214.59917641 420.8640995 C-214.59272251 413.02991507 -214.56979863 405.19584724 -214.54283311 397.36170974 C-214.49953348 384.65188212 -214.46958489 371.9420594 -214.44799805 359.23217773 C-214.42699786 346.88449697 -214.39973118 334.53685633 -214.36401367 322.18920898 C-214.36181485 321.42831328 -214.35961602 320.66741758 -214.35735057 319.88346443 C-214.34628115 316.06633786 -214.3350883 312.24921166 -214.32383406 308.43208563 C-214.230604 276.75684015 -214.15924878 245.08158077 -214.1015625 213.40625 C-215.74898437 213.21095703 -215.74898437 213.21095703 -217.4296875 213.01171875 C-221.61712752 212.32123662 -223.16818194 211.42111335 -226.1015625 208.40625 C-228.9115252 203.77688699 -229.44135376 200.41220786 -229.2890625 195.03125 C-229.24845703 193.16339844 -229.24845703 193.16339844 -229.20703125 191.2578125 C-229.15482422 189.84628906 -229.15482422 189.84628906 -229.1015625 188.40625 C-229.8853125 188.138125 -230.6690625 187.87 -231.4765625 187.59375 C-234.1015625 186.40625 -234.1015625 186.40625 -236.1015625 183.40625 C-236.50445527 179.71306629 -236.73097407 177.37732982 -234.67675781 174.20800781 C-230.76836087 171.47346388 -227.18039201 171.90856737 -222.5234375 172.015625 C-221.5968634 172.02128479 -220.67028931 172.02694458 -219.71563721 172.03277588 C-216.76041688 172.05514079 -213.80641545 172.10533738 -210.8515625 172.15625 C-208.8463717 172.17631485 -206.84116186 172.19456565 -204.8359375 172.2109375 C-199.92401056 172.255006 -195.01299308 172.32403445 -190.1015625 172.40625 C-190.1015625 169.10625 -190.1015625 165.80625 -190.1015625 162.40625 C-190.9678125 162.32375 -191.8340625 162.24125 -192.7265625 162.15625 C-197.6522029 161.06166325 -200.89517986 159.02862665 -203.9140625 154.96875 C-207.21709856 147.84114587 -207.09978254 138.99998872 -204.9765625 131.53125 C-203.08904208 126.49184142 -199.90931234 123.81012492 -195.1015625 121.40625 C-193.18834958 121.31248144 -191.2718014 121.28434133 -189.35629272 121.28599548 C-188.13349106 121.28462082 -186.91068939 121.28324615 -185.65083313 121.28182983 C-184.28854346 121.2853692 -182.92625403 121.28900401 -181.56396484 121.29272461 C-180.1351166 121.29300656 -178.70626821 121.29284859 -177.27742004 121.2922821 C-173.39128616 121.29199444 -169.50518296 121.29788616 -165.61905622 121.30485606 C-161.56046166 121.31109477 -157.50186644 121.31169381 -153.44326782 121.31288147 C-145.75452112 121.31599326 -138.06578859 121.3242046 -130.37704813 121.33423096 C-121.62505414 121.34539682 -112.87305948 121.35090374 -104.12106013 121.35592639 C-86.11455288 121.36638733 -68.10805883 121.38398383 -50.1015625 121.40625 C-50.14796875 120.39304687 -50.194375 119.37984375 -50.2421875 118.3359375 C-50.27973008 116.98440468 -50.31612756 115.63283972 -50.3515625 114.28125 C-50.38507813 113.61609375 -50.41859375 112.9509375 -50.453125 112.265625 C-50.55444627 107.09824031 -49.24446151 104.42217652 -46.1015625 100.40625 C-45.1115625 98.92125 -45.1115625 98.92125 -44.1015625 97.40625 C-44.8440625 96.643125 -45.5865625 95.88 -46.3515625 95.09375 C-50.36102824 90.31894464 -53.1015625 83.65490848 -53.1015625 77.40625 C-54.00648438 77.58414063 -54.00648438 77.58414063 -54.9296875 77.765625 C-61.4653796 78.81976889 -61.4653796 78.81976889 -64.6015625 76.78125 C-66.81943754 73.26961452 -67.36412379 70.94410898 -66.6640625 66.84375 C-64.30840302 63.16892121 -61.03525763 62.05733674 -57.1015625 60.40625 C-56.2353125 59.99375 -55.3690625 59.58125 -54.4765625 59.15625 C-51.41476701 58.18936721 -49.29518076 57.940514 -46.1015625 58.40625 C-40.78144199 62.49995163 -39.45299111 67.37117327 -37.4140625 73.59375 C-34.36301986 82.12684859 -31.42819243 89.77494196 -23.1015625 94.40625 C-19.27173775 95.12949954 -15.93317435 95.06184899 -12.1015625 94.40625 C-12.56046875 93.95378906 -13.019375 93.50132813 -13.4921875 93.03515625 C-20.03877887 85.75963769 -21.37446396 77.74974583 -23.1015625 68.40625 C-24.13216797 68.45845703 -24.13216797 68.45845703 -25.18359375 68.51171875 C-26.08464844 68.53878906 -26.98570312 68.56585938 -27.9140625 68.59375 C-29.25404297 68.64595703 -29.25404297 68.64595703 -30.62109375 68.69921875 C-33.1015625 68.40625 -33.1015625 68.40625 -34.875 67.04296875 C-36.55078912 64.80680428 -36.9027641 63.18942754 -37.1015625 60.40625 C-36.31711694 57.11157866 -35.68522691 55.79738622 -32.8515625 53.8984375 C-27.19160629 50.82726808 -21.59607615 48.40625 -15.1015625 48.40625 C-11.62023233 49.56669339 -10.97366306 50.33717865 -9.1015625 53.40625 C-8.40063477 55.93310547 -8.40063477 55.93310547 -7.91796875 58.7734375 C-7.71107422 59.8253125 -7.50417969 60.8771875 -7.29101562 61.9609375 C-6.88134787 64.1305175 -6.4973669 66.30514808 -6.14257812 68.484375 C-3.78543796 79.97108754 0.1206529 82.1655013 8.8984375 92.40625 C9.2284375 79.86625 9.5584375 67.32625 9.8984375 54.40625 C8.2484375 54.40625 6.5984375 54.40625 4.8984375 54.40625 C2.5234375 52.34375 2.5234375 52.34375 0.8984375 49.40625 C0.95919881 45.8820943 1.17588394 43.49008034 3.1484375 40.53125 C5.35010854 39.11589005 7.32312258 38.75426553 9.8984375 38.40625 C9.8984375 37.08625 9.8984375 35.76625 9.8984375 34.40625 C9.0528125 34.179375 8.2071875 33.9525 7.3359375 33.71875 C-0.21110073 30.83715358 -4.46478187 26.58036804 -8.1015625 19.40625 C-10.22522554 14.55216305 -10.5989848 10.6291841 -10.1015625 5.40625 C-7.67454259 0.55221017 -5.16375802 -0.38392253 0 0 Z M-34.1015625 111.40625 C-34.1015625 114.37625 -34.1015625 117.34625 -34.1015625 120.40625 C-32.13939217 122.36842033 -29.12752106 121.53319487 -26.51519775 121.54177856 C-25.56658875 121.53975433 -24.61797974 121.5377301 -23.640625 121.53564453 C-22.64722107 121.53739685 -21.65381714 121.53914917 -20.63031006 121.54095459 C-17.32904338 121.54537511 -14.02782977 121.54243441 -10.7265625 121.5390625 C-8.44352203 121.53973548 -6.16048163 121.54070546 -3.87744141 121.54196167 C0.91439494 121.54343891 5.70621269 121.54128323 10.49804688 121.53662109 C16.65560385 121.5309238 22.81311724 121.53420266 28.97067261 121.54019356 C33.68709647 121.54379845 38.40350991 121.54266091 43.11993408 121.54006577 C45.3910523 121.5393963 47.66217144 121.5402256 49.93328857 121.54254532 C53.10138472 121.54507067 56.26940922 121.5412329 59.4375 121.53564453 C60.86041351 121.53868088 60.86041351 121.53868088 62.31207275 121.54177856 C66.43033161 121.9508076 66.43033161 121.9508076 69.8984375 120.40625 C69.8984375 117.43625 69.8984375 114.46625 69.8984375 111.40625 C35.5784375 111.40625 1.2584375 111.40625 -34.1015625 111.40625 Z M-190.1015625 137.40625 C-190.26210065 139.27946948 -190.26210065 139.27946948 -190.2265625 141.40625 C-190.22914063 142.128125 -190.23171875 142.85 -190.234375 143.59375 C-190.29851526 145.42714415 -190.29851526 145.42714415 -189.1015625 146.40625 C-187.06395063 146.50303239 -185.02292538 146.52811965 -182.98301697 146.52650452 C-182.33696127 146.52735894 -181.69090557 146.52821337 -181.02527243 146.52909368 C-178.84486433 146.53075024 -176.66453195 146.52522429 -174.48413086 146.51977539 C-172.92735292 146.51949353 -171.37057486 146.51965123 -169.813797 146.5202179 C-165.57431046 146.52050592 -161.33485196 146.51460846 -157.09537196 146.50764394 C-152.6697483 146.50141115 -148.24412407 146.50080666 -143.8184967 146.49961853 C-135.43202272 146.49650499 -127.0455617 146.4882913 -118.65909344 146.47826904 C-109.11390901 146.4671086 -99.56872398 146.46159763 -90.02353466 146.45657361 C-70.38287002 146.44610871 -50.74221708 146.42850883 -31.1015625 146.40625 C-31.1015625 143.10625 -31.1015625 139.80625 -31.1015625 136.40625 C-51.68493088 136.38292279 -72.26829709 136.3652717 -92.85167599 136.35443783 C-102.40820189 136.34927449 -111.96471959 136.34223108 -121.52124023 136.33081055 C-129.84758257 136.32086486 -138.17391898 136.31439685 -146.50026709 136.31216151 C-150.91181107 136.3108542 -155.32333807 136.30776712 -159.73487663 136.30051994 C-163.88226637 136.29376154 -168.02963203 136.29163267 -172.17702675 136.29314232 C-173.7036998 136.29286591 -175.23037362 136.29085972 -176.75704193 136.28704453 C-178.83239709 136.28211006 -180.90765992 136.28325077 -182.98301697 136.28599548 C-184.14724151 136.28507369 -185.31146605 136.2841519 -186.51097012 136.28320217 C-189.03135089 136.11178433 -189.03135089 136.11178433 -190.1015625 137.40625 Z M-15.1015625 136.40625 C-15.1015625 148.28625 -15.1015625 160.16625 -15.1015625 172.40625 C6.6784375 172.40625 28.4584375 172.40625 50.8984375 172.40625 C50.8984375 160.52625 50.8984375 148.64625 50.8984375 136.40625 C29.1184375 136.40625 7.3384375 136.40625 -15.1015625 136.40625 Z M-174.1015625 162.40625 C-174.1015625 165.70625 -174.1015625 169.00625 -174.1015625 172.40625 C-126.9115625 172.40625 -79.7215625 172.40625 -31.1015625 172.40625 C-31.1015625 169.10625 -31.1015625 165.80625 -31.1015625 162.40625 C-78.2915625 162.40625 -125.4815625 162.40625 -174.1015625 162.40625 Z M66.8984375 162.40625 C66.8984375 165.70625 66.8984375 169.00625 66.8984375 172.40625 C114.0884375 172.40625 161.2784375 172.40625 209.8984375 172.40625 C209.8984375 169.10625 209.8984375 165.80625 209.8984375 162.40625 C162.7084375 162.40625 115.5184375 162.40625 66.8984375 162.40625 Z M-213.1015625 188.40625 C-213.1015625 191.37625 -213.1015625 194.34625 -213.1015625 197.40625 C-60.6415625 197.40625 91.8184375 197.40625 248.8984375 197.40625 C248.8984375 194.43625 248.8984375 191.46625 248.8984375 188.40625 C96.4384375 188.40625 -56.0215625 188.40625 -213.1015625 188.40625 Z M-198.1015625 213.40625 C-198.1015625 216.70625 -198.1015625 220.00625 -198.1015625 223.40625 C-55.5415625 223.40625 87.0184375 223.40625 233.8984375 223.40625 C233.8984375 220.10625 233.8984375 216.80625 233.8984375 213.40625 C91.3384375 213.40625 -51.2215625 213.40625 -198.1015625 213.40625 Z M-198.1015625 239.40625 C-198.1015625 314.31625 -198.1015625 389.22625 -198.1015625 466.40625 C-190.8415625 466.40625 -183.5815625 466.40625 -176.1015625 466.40625 C-176.1015625 391.49625 -176.1015625 316.58625 -176.1015625 239.40625 C-183.3615625 239.40625 -190.6215625 239.40625 -198.1015625 239.40625 Z M-160.1015625 239.40625 C-160.21457384 268.49434268 -160.30409937 297.58239499 -160.35688915 326.67066325 C-160.36314275 330.10409162 -160.36961435 333.53751955 -160.3762207 336.97094727 C-160.37753226 337.6544865 -160.37884381 338.33802573 -160.3801951 339.04227827 C-160.40195703 350.11289588 -160.44138281 361.1833838 -160.48732648 372.25392445 C-160.53406939 383.61170121 -160.56147896 394.96938178 -160.57200497 406.32726079 C-160.57853226 412.7075478 -160.5939087 419.08754054 -160.63021278 425.46773338 C-160.66409155 431.47019247 -160.6746317 437.47223542 -160.66710091 443.47478104 C-160.66847907 445.68029477 -160.67845946 447.88582209 -160.69758987 450.09125328 C-160.72240038 453.09843417 -160.71651096 456.1040358 -160.70283508 459.11125183 C-160.71739929 459.98771478 -160.7319635 460.86417774 -160.74696904 461.76720017 C-160.69218884 466.21142999 -160.57862685 467.83964382 -157.61352825 471.36127186 C-156.78457955 472.03611465 -155.95563086 472.71095743 -155.1015625 473.40625 C-153.9768884 476.26452245 -153.92231132 479.11527628 -153.78515625 482.171875 C-153.74326172 483.06132812 -153.70136719 483.95078125 -153.65820312 484.8671875 C-153.59922852 486.24777344 -153.59922852 486.24777344 -153.5390625 487.65625 C-153.49587891 488.59210938 -153.45269531 489.52796875 -153.40820312 490.4921875 C-153.30238311 492.79671222 -153.20149333 495.10146239 -153.1015625 497.40625 C-148.4815625 497.40625 -143.8615625 497.40625 -139.1015625 497.40625 C-139.06417969 496.1275 -139.02679688 494.84875 -138.98828125 493.53125 C-138.92257508 491.8228896 -138.85612939 490.11455753 -138.7890625 488.40625 C-138.76650391 487.56707031 -138.74394531 486.72789062 -138.72070312 485.86328125 C-138.47591767 480.12194978 -137.55546906 475.62881598 -135.1015625 470.40625 C-133.6165625 469.41625 -133.6165625 469.41625 -132.1015625 468.40625 C-131.80748962 465.36113109 -131.71071503 462.51947864 -131.74079895 459.47201538 C-131.73695404 458.06675187 -131.73695404 458.06675187 -131.73303145 456.6330992 C-131.7280657 453.47446605 -131.74463244 450.3163044 -131.76098633 447.15771484 C-131.761832 444.90129101 -131.76135864 442.64486635 -131.75965881 440.38844299 C-131.75879509 434.24612364 -131.77648184 428.10397865 -131.79738069 421.96169996 C-131.81608474 415.54882653 -131.81789297 409.13594948 -131.82145691 402.72305298 C-131.82973359 391.95400387 -131.84849536 381.18503128 -131.87524414 370.41601562 C-131.9027701 359.32259442 -131.92401082 348.22919064 -131.93676758 337.13574219 C-131.93755575 336.45224565 -131.93834392 335.76874911 -131.93915597 335.06454055 C-131.94307101 331.63572961 -131.94686215 328.20691855 -131.95059168 324.7781074 C-131.98170521 296.32077592 -132.03538048 267.8635197 -132.1015625 239.40625 C-141.3415625 239.40625 -150.5815625 239.40625 -160.1015625 239.40625 Z M-116.1015625 239.40625 C-116.1015625 314.31625 -116.1015625 389.22625 -116.1015625 466.40625 C-108.8415625 466.40625 -101.5815625 466.40625 -94.1015625 466.40625 C-94.1015625 391.49625 -94.1015625 316.58625 -94.1015625 239.40625 C-101.3615625 239.40625 -108.6215625 239.40625 -116.1015625 239.40625 Z M-78.1015625 239.40625 C-78.21457384 268.49434268 -78.30409937 297.58239499 -78.35688915 326.67066325 C-78.36314275 330.10409162 -78.36961435 333.53751955 -78.3762207 336.97094727 C-78.37753226 337.6544865 -78.37884381 338.33802573 -78.3801951 339.04227827 C-78.40195703 350.11289588 -78.44138281 361.1833838 -78.48732648 372.25392445 C-78.53406939 383.61170121 -78.56147896 394.96938178 -78.57200497 406.32726079 C-78.57853226 412.7075478 -78.5939087 419.08754054 -78.63021278 425.46773338 C-78.66409155 431.47019247 -78.6746317 437.47223542 -78.66710091 443.47478104 C-78.66847907 445.68029477 -78.67845946 447.88582209 -78.69758987 450.09125328 C-78.72240038 453.09843417 -78.71651096 456.1040358 -78.70283508 459.11125183 C-78.71739929 459.98771478 -78.7319635 460.86417774 -78.74696904 461.76720017 C-78.69218884 466.21142999 -78.57862685 467.83964382 -75.61352825 471.36127186 C-74.78457955 472.03611465 -73.95563086 472.71095743 -73.1015625 473.40625 C-71.9768884 476.26452245 -71.92231132 479.11527628 -71.78515625 482.171875 C-71.74326172 483.06132812 -71.70136719 483.95078125 -71.65820312 484.8671875 C-71.59922852 486.24777344 -71.59922852 486.24777344 -71.5390625 487.65625 C-71.49587891 488.59210938 -71.45269531 489.52796875 -71.40820312 490.4921875 C-71.30238311 492.79671222 -71.20149333 495.10146239 -71.1015625 497.40625 C-66.4815625 497.40625 -61.8615625 497.40625 -57.1015625 497.40625 C-57.06417969 496.04371094 -57.02679688 494.68117188 -56.98828125 493.27734375 C-56.92258919 491.46611979 -56.85614298 489.65492307 -56.7890625 487.84375 C-56.76650391 486.94849609 -56.74394531 486.05324219 -56.72070312 485.13085938 C-56.49509003 479.53155253 -55.83064373 475.33933982 -53.1015625 470.40625 C-51.6165625 469.41625 -51.6165625 469.41625 -50.1015625 468.40625 C-49.80748962 465.36113109 -49.71071503 462.51947864 -49.74079895 459.47201538 C-49.73695404 458.06675187 -49.73695404 458.06675187 -49.73303145 456.6330992 C-49.7280657 453.47446605 -49.74463244 450.3163044 -49.76098633 447.15771484 C-49.761832 444.90129101 -49.76135864 442.64486635 -49.75965881 440.38844299 C-49.75879509 434.24612364 -49.77648184 428.10397865 -49.79738069 421.96169996 C-49.81608474 415.54882653 -49.81789297 409.13594948 -49.82145691 402.72305298 C-49.82973359 391.95400387 -49.84849536 381.18503128 -49.87524414 370.41601562 C-49.9027701 359.32259442 -49.92401082 348.22919064 -49.93676758 337.13574219 C-49.93755575 336.45224565 -49.93834392 335.76874911 -49.93915597 335.06454055 C-49.94307101 331.63572961 -49.94686215 328.20691855 -49.95059168 324.7781074 C-49.98170521 296.32077592 -50.03538048 267.8635197 -50.1015625 239.40625 C-59.3415625 239.40625 -68.5815625 239.40625 -78.1015625 239.40625 Z M-34.1015625 239.40625 C-34.1015625 314.31625 -34.1015625 389.22625 -34.1015625 466.40625 C-26.8415625 466.40625 -19.5815625 466.40625 -12.1015625 466.40625 C-12.1015625 391.49625 -12.1015625 316.58625 -12.1015625 239.40625 C-19.3615625 239.40625 -26.6215625 239.40625 -34.1015625 239.40625 Z M3.8984375 239.40625 C3.80804571 268.51138071 3.73641732 297.61648563 3.69417618 326.72172858 C3.68917325 330.15644559 3.68399597 333.59116232 3.67871094 337.02587891 C3.6776617 337.70968045 3.67661245 338.39348199 3.67553142 339.09800479 C3.65811753 350.17573963 3.62657447 361.2533916 3.58982632 372.33107725 C3.55244417 383.69449997 3.53050693 395.0578612 3.52208352 406.42134929 C3.51685962 412.80547009 3.50454511 419.1894028 3.47551727 425.57346344 C3.44843391 431.57834216 3.43997823 437.58295472 3.44600677 443.58788872 C3.44490337 445.79542676 3.43690766 448.0029734 3.4216156 450.21045876 C3.4017988 453.217805 3.40646821 456.22413807 3.41741943 459.23150635 C3.40576807 460.11088214 3.3941167 460.99025794 3.38211226 461.89628148 C3.38535031 466.76433983 3.38535031 466.76433983 5.85281754 470.84807968 C6.52787212 471.36227589 7.20292671 471.87647209 7.8984375 472.40625 C10.60897281 477.11908398 10.34371902 482.42079889 10.5234375 487.71875 C10.56210938 488.65009766 10.60078125 489.58144531 10.640625 490.54101562 C10.73449576 492.82911539 10.81753832 495.11765489 10.8984375 497.40625 C15.5184375 497.40625 20.1384375 497.40625 24.8984375 497.40625 C24.93582031 496.04371094 24.97320312 494.68117188 25.01171875 493.27734375 C25.07741081 491.46611979 25.14385702 489.65492307 25.2109375 487.84375 C25.23349609 486.94849609 25.25605469 486.05324219 25.27929688 485.13085938 C25.50490997 479.53155253 26.16935627 475.33933982 28.8984375 470.40625 C30.3834375 469.41625 30.3834375 469.41625 31.8984375 468.40625 C32.19251038 465.36113109 32.28928497 462.51947864 32.25920105 459.47201538 C32.26304596 458.06675187 32.26304596 458.06675187 32.26696855 456.6330992 C32.2719343 453.47446605 32.25536756 450.3163044 32.23901367 447.15771484 C32.238168 444.90129101 32.23864136 442.64486635 32.24034119 440.38844299 C32.24120491 434.24612364 32.22351816 428.10397865 32.20261931 421.96169996 C32.18391526 415.54882653 32.18210703 409.13594948 32.17854309 402.72305298 C32.17026641 391.95400387 32.15150464 381.18503128 32.12475586 370.41601562 C32.0972299 359.32259442 32.07598918 348.22919064 32.06323242 337.13574219 C32.06244425 336.45224565 32.06165608 335.76874911 32.06084403 335.06454055 C32.05692899 331.63572961 32.05313785 328.20691855 32.04940832 324.7781074 C32.01829479 296.32077592 31.96461952 267.8635197 31.8984375 239.40625 C22.6584375 239.40625 13.4184375 239.40625 3.8984375 239.40625 Z M47.8984375 239.40625 C47.8984375 314.31625 47.8984375 389.22625 47.8984375 466.40625 C55.1584375 466.40625 62.4184375 466.40625 69.8984375 466.40625 C69.8984375 391.49625 69.8984375 316.58625 69.8984375 239.40625 C62.6384375 239.40625 55.3784375 239.40625 47.8984375 239.40625 Z M85.8984375 239.40625 C85.80804571 268.51138071 85.73641732 297.61648563 85.69417618 326.72172858 C85.68917325 330.15644559 85.68399597 333.59116232 85.67871094 337.02587891 C85.6776617 337.70968045 85.67661245 338.39348199 85.67553142 339.09800479 C85.65811753 350.17573963 85.62657447 361.2533916 85.58982632 372.33107725 C85.55244417 383.69449997 85.53050693 395.0578612 85.52208352 406.42134929 C85.51685962 412.80547009 85.50454511 419.1894028 85.47551727 425.57346344 C85.44843391 431.57834216 85.43997823 437.58295472 85.44600677 443.58788872 C85.44490337 445.79542676 85.43690766 448.0029734 85.4216156 450.21045876 C85.4017988 453.217805 85.40646821 456.22413807 85.41741943 459.23150635 C85.40576807 460.11088214 85.3941167 460.99025794 85.38211226 461.89628148 C85.38535031 466.76433983 85.38535031 466.76433983 87.85281754 470.84807968 C88.52787212 471.36227589 89.20292671 471.87647209 89.8984375 472.40625 C92.60897281 477.11908398 92.34371902 482.42079889 92.5234375 487.71875 C92.56210937 488.65009766 92.60078125 489.58144531 92.640625 490.54101562 C92.73449576 492.82911539 92.81753832 495.11765489 92.8984375 497.40625 C97.5184375 497.40625 102.1384375 497.40625 106.8984375 497.40625 C106.93582031 496.04371094 106.97320312 494.68117188 107.01171875 493.27734375 C107.07741081 491.46611979 107.14385702 489.65492307 107.2109375 487.84375 C107.23349609 486.94849609 107.25605469 486.05324219 107.27929688 485.13085938 C107.50490997 479.53155253 108.16935627 475.33933982 110.8984375 470.40625 C112.3834375 469.41625 112.3834375 469.41625 113.8984375 468.40625 C114.19251038 465.36113109 114.28928497 462.51947864 114.25920105 459.47201538 C114.26304596 458.06675187 114.26304596 458.06675187 114.26696855 456.6330992 C114.2719343 453.47446605 114.25536756 450.3163044 114.23901367 447.15771484 C114.238168 444.90129101 114.23864136 442.64486635 114.24034119 440.38844299 C114.24120491 434.24612364 114.22351816 428.10397865 114.20261931 421.96169996 C114.18391526 415.54882653 114.18210703 409.13594948 114.17854309 402.72305298 C114.17026641 391.95400387 114.15150464 381.18503128 114.12475586 370.41601562 C114.0972299 359.32259442 114.07598918 348.22919064 114.06323242 337.13574219 C114.06244425 336.45224565 114.06165608 335.76874911 114.06084403 335.06454055 C114.05692899 331.63572961 114.05313785 328.20691855 114.04940832 324.7781074 C114.01829479 296.32077592 113.96461952 267.8635197 113.8984375 239.40625 C104.6584375 239.40625 95.4184375 239.40625 85.8984375 239.40625 Z M129.8984375 239.40625 C129.8984375 314.31625 129.8984375 389.22625 129.8984375 466.40625 C137.1584375 466.40625 144.4184375 466.40625 151.8984375 466.40625 C151.8984375 391.49625 151.8984375 316.58625 151.8984375 239.40625 C144.6384375 239.40625 137.3784375 239.40625 129.8984375 239.40625 Z M167.8984375 239.40625 C167.80804571 268.51138071 167.73641732 297.61648563 167.69417618 326.72172858 C167.68917325 330.15644559 167.68399597 333.59116232 167.67871094 337.02587891 C167.6776617 337.70968045 167.67661245 338.39348199 167.67553142 339.09800479 C167.65811753 350.17573963 167.62657447 361.2533916 167.58982632 372.33107725 C167.55244417 383.69449997 167.53050693 395.0578612 167.52208352 406.42134929 C167.51685962 412.80547009 167.50454511 419.1894028 167.47551727 425.57346344 C167.44843391 431.57834216 167.43997823 437.58295472 167.44600677 443.58788872 C167.44490337 445.79542676 167.43690766 448.0029734 167.4216156 450.21045876 C167.4017988 453.217805 167.40646821 456.22413807 167.41741943 459.23150635 C167.40576807 460.11088214 167.3941167 460.99025794 167.38211226 461.89628148 C167.37838056 466.75488157 167.37838056 466.75488157 169.85281754 470.8151207 C170.52787212 471.34019337 171.20292671 471.86526604 171.8984375 472.40625 C174.25801038 477.53641813 174.32278894 482.72997309 174.5234375 488.28125 C174.56210937 489.16039062 174.60078125 490.03953125 174.640625 490.9453125 C174.73424784 493.09863793 174.81740209 495.25241414 174.8984375 497.40625 C179.5184375 497.40625 184.1384375 497.40625 188.8984375 497.40625 C188.93582031 496.04371094 188.97320312 494.68117188 189.01171875 493.27734375 C189.07741081 491.46611979 189.14385702 489.65492307 189.2109375 487.84375 C189.23349609 486.94849609 189.25605469 486.05324219 189.27929688 485.13085938 C189.50490997 479.53155253 190.16935627 475.33933982 192.8984375 470.40625 C194.3834375 469.41625 194.3834375 469.41625 195.8984375 468.40625 C196.19251038 465.36113109 196.28928497 462.51947864 196.25920105 459.47201538 C196.26304596 458.06675187 196.26304596 458.06675187 196.26696855 456.6330992 C196.2719343 453.47446605 196.25536756 450.3163044 196.23901367 447.15771484 C196.238168 444.90129101 196.23864136 442.64486635 196.24034119 440.38844299 C196.24120491 434.24612364 196.22351816 428.10397865 196.20261931 421.96169996 C196.18391526 415.54882653 196.18210703 409.13594948 196.17854309 402.72305298 C196.17026641 391.95400387 196.15150464 381.18503128 196.12475586 370.41601562 C196.0972299 359.32259442 196.07598918 348.22919064 196.06323242 337.13574219 C196.06244425 336.45224565 196.06165608 335.76874911 196.06084403 335.06454055 C196.05692899 331.63572961 196.05313785 328.20691855 196.04940832 324.7781074 C196.01829479 296.32077592 195.96461952 267.8635197 195.8984375 239.40625 C186.6584375 239.40625 177.4184375 239.40625 167.8984375 239.40625 Z M-205.1015625 482.40625 C-205.1015625 487.35625 -205.1015625 492.30625 -205.1015625 497.40625 C-193.2215625 497.40625 -181.3415625 497.40625 -169.1015625 497.40625 C-169.1015625 492.45625 -169.1015625 487.50625 -169.1015625 482.40625 C-180.9815625 482.40625 -192.8615625 482.40625 -205.1015625 482.40625 Z M-123.1015625 482.40625 C-123.1015625 487.35625 -123.1015625 492.30625 -123.1015625 497.40625 C-111.2215625 497.40625 -99.3415625 497.40625 -87.1015625 497.40625 C-87.1015625 492.45625 -87.1015625 487.50625 -87.1015625 482.40625 C-98.9815625 482.40625 -110.8615625 482.40625 -123.1015625 482.40625 Z M-41.1015625 482.40625 C-41.1015625 487.35625 -41.1015625 492.30625 -41.1015625 497.40625 C-29.2215625 497.40625 -17.3415625 497.40625 -5.1015625 497.40625 C-5.1015625 492.45625 -5.1015625 487.50625 -5.1015625 482.40625 C-16.9815625 482.40625 -28.8615625 482.40625 -41.1015625 482.40625 Z M40.8984375 482.40625 C40.8984375 487.35625 40.8984375 492.30625 40.8984375 497.40625 C52.7784375 497.40625 64.6584375 497.40625 76.8984375 497.40625 C76.8984375 492.45625 76.8984375 487.50625 76.8984375 482.40625 C65.0184375 482.40625 53.1384375 482.40625 40.8984375 482.40625 Z M122.8984375 482.40625 C122.8984375 487.35625 122.8984375 492.30625 122.8984375 497.40625 C134.7784375 497.40625 146.6584375 497.40625 158.8984375 497.40625 C158.8984375 492.45625 158.8984375 487.50625 158.8984375 482.40625 C147.0184375 482.40625 135.1384375 482.40625 122.8984375 482.40625 Z M204.8984375 482.40625 C204.8984375 487.35625 204.8984375 492.30625 204.8984375 497.40625 C216.7784375 497.40625 228.6584375 497.40625 240.8984375 497.40625 C240.8984375 492.45625 240.8984375 487.50625 240.8984375 482.40625 C229.0184375 482.40625 217.1384375 482.40625 204.8984375 482.40625 Z " fill="#FFFFFF" transform="translate(238.1015625,-0.40625)"/>
</svg>
