<?xml version="1.0" standalone="no"?>
<!DOCTYPE svg PUBLIC "-//W3C//DTD SVG 20010904//EN"
 "http://www.w3.org/TR/2001/REC-SVG-20010904/DTD/svg10.dtd">
<svg version="1.0" xmlns="http://www.w3.org/2000/svg"
 width="512.000000pt" height="512.000000pt" viewBox="0 0 512.000000 512.000000"
 preserveAspectRatio="xMidYMid meet">

<g transform="translate(0.000000,512.000000) scale(0.100000,-0.100000)"
fill="#000000" stroke="none">
<path d="M2312 5097 c-40 -42 -23 -147 35 -223 15 -20 51 -50 80 -66 41 -23
53 -35 53 -54 0 -17 -6 -24 -18 -24 -28 0 -62 -42 -62 -77 0 -32 37 -73 66
-73 11 0 14 -38 14 -202 l-1 -203 -35 40 c-103 115 -104 117 -135 252 -40 176
-57 188 -194 135 -77 -30 -103 -60 -91 -105 10 -42 50 -63 96 -51 l37 11 22
-96 c19 -82 28 -103 61 -141 l40 -45 -67 -3 -66 -3 -57 56 c-50 50 -60 66 -94
164 -21 61 -46 117 -55 125 -25 23 -72 20 -138 -9 -66 -29 -83 -47 -83 -87 0
-45 34 -71 86 -65 l43 4 26 -77 c17 -50 36 -87 55 -105 l30 -29 -29 -30 c-39
-41 -51 -75 -51 -146 l0 -60 -724 -2 c-714 -3 -725 -3 -752 -24 -58 -43 -69
-68 -72 -167 -2 -81 0 -97 20 -131 21 -35 64 -67 111 -80 13 -4 17 -16 17 -56
l0 -50 -201 0 -201 0 -30 -30 c-24 -25 -29 -36 -23 -58 8 -32 33 -62 52 -62 9
0 13 -17 13 -63 0 -92 29 -144 97 -177 l53 -25 0 -1277 c0 -770 -4 -1278 -9
-1278 -5 0 -19 -15 -30 -34 -18 -28 -21 -49 -21 -140 0 -100 -1 -106 -20 -106
-29 0 -70 -44 -70 -75 0 -14 11 -37 25 -50 l24 -25 2421 0 2421 0 24 25 c14
13 25 36 25 50 0 31 -41 75 -70 75 -19 0 -20 6 -20 99 0 106 -7 138 -39 170
-20 20 -21 35 -23 532 l-3 511 -24 19 c-30 25 -62 24 -95 -2 l-26 -20 0 -500
0 -499 -120 0 -120 0 0 1135 0 1135 120 0 120 0 0 -493 0 -494 23 -21 c31 -29
72 -28 102 3 l25 24 0 618 0 618 53 25 c68 33 97 85 97 177 0 46 4 63 13 63
19 0 44 30 52 62 6 22 1 33 -23 58 l-30 30 -201 0 -201 0 0 50 c0 40 4 52 18
56 92 27 132 88 132 201 0 90 -16 131 -66 169 l-37 29 -374 3 -373 3 -25 -25
c-32 -32 -32 -70 0 -101 l24 -25 351 0 351 0 -3 -52 -3 -53 -795 0 -795 0 -3
53 -3 52 301 0 301 0 24 25 c14 13 25 36 25 50 0 14 -11 37 -25 50 -24 25 -25
25 -225 25 l-200 0 0 59 c0 72 -12 106 -51 147 l-29 30 30 29 c19 18 38 55 55
105 l26 77 43 -4 c52 -6 86 20 86 65 0 40 -17 58 -83 87 -66 29 -113 32 -138
9 -9 -8 -34 -64 -55 -125 -34 -98 -44 -114 -94 -164 l-57 -56 -66 3 -67 3 40
45 c33 38 42 59 61 141 l22 96 37 -11 c46 -12 86 9 96 51 12 45 -14 75 -91
105 -137 53 -154 41 -194 -135 -31 -135 -32 -137 -135 -252 l-35 -40 -1 203
c0 164 3 202 14 202 29 0 66 41 66 74 0 35 -34 76 -63 76 -11 0 -17 8 -17 24
0 19 12 31 53 54 85 48 137 134 137 227 0 63 -49 100 -105 79 -20 -8 -45 -56
-45 -87 0 -14 -8 -35 -19 -48 l-18 -22 -14 44 c-26 81 -112 81 -138 0 -14 -44
-14 -44 -31 -23 -10 11 -20 39 -24 62 -12 75 -78 106 -124 57z m776 -1134 l3
-53 -530 0 -531 0 0 48 c0 27 3 52 7 55 3 4 241 6 527 5 l521 -3 3 -52z
m-1010 -255 l-3 -53 -795 0 -795 0 -3 53 -3 52 801 0 801 0 -3 -52z m812 -128
l0 -180 -330 0 -330 0 0 180 0 180 330 0 330 0 0 -180z m-810 -130 l0 -50
-725 0 -725 0 0 50 0 50 725 0 725 0 0 -50z m2410 0 l0 -50 -725 0 -725 0 0
50 0 50 725 0 725 0 0 -50z m390 -255 l0 -55 -2320 0 -2320 0 0 55 0 55 2320
0 2320 0 0 -55z m-152 -257 l-3 -53 -2165 0 -2165 0 -3 53 -3 52 2171 0 2171
0 -3 -52z m-4098 -1343 l0 -1135 -120 0 -120 0 0 1135 0 1135 120 0 120 0 0
-1135z m430 -15 c0 -692 -4 -1150 -9 -1150 -5 0 -19 -15 -30 -34 -18 -28 -21
-49 -21 -140 l0 -106 -80 0 -80 0 0 108 c0 89 -3 112 -20 140 -11 17 -24 32
-30 32 -7 0 -10 379 -10 1150 l0 1150 140 0 140 0 0 -1150z m390 15 l0 -1135
-120 0 -120 0 0 1135 0 1135 120 0 120 0 0 -1135z m430 -15 c0 -771 -3 -1150
-10 -1150 -6 0 -19 -15 -30 -32 -17 -28 -20 -51 -20 -140 l0 -108 -80 0 -80 0
0 108 c0 89 -3 112 -20 140 -11 17 -24 32 -30 32 -7 0 -10 379 -10 1150 l0
1150 140 0 140 0 0 -1150z m390 15 l0 -1135 -120 0 -120 0 0 1135 0 1135 120
0 120 0 0 -1135z m430 -15 c0 -771 -3 -1150 -10 -1150 -6 0 -19 -15 -30 -32
-17 -28 -20 -51 -20 -140 l0 -108 -80 0 -80 0 0 108 c0 89 -3 112 -20 140 -11
17 -24 32 -30 32 -7 0 -10 379 -10 1150 l0 1150 140 0 140 0 0 -1150z m390 15
l0 -1135 -120 0 -120 0 0 1135 0 1135 120 0 120 0 0 -1135z m430 -15 c0 -771
-3 -1150 -10 -1150 -6 0 -19 -15 -30 -32 -17 -28 -20 -51 -20 -140 l0 -108
-80 0 -80 0 0 108 c0 89 -3 112 -20 140 -11 17 -24 32 -30 32 -7 0 -10 379
-10 1150 l0 1150 140 0 140 0 0 -1150z m390 15 l0 -1135 -120 0 -120 0 0 1135
0 1135 120 0 120 0 0 -1135z m430 -15 c0 -771 -3 -1150 -10 -1150 -6 0 -19
-15 -30 -32 -17 -28 -20 -51 -20 -140 l0 -108 -80 0 -80 0 0 106 c0 91 -3 112
-21 140 -11 19 -25 34 -30 34 -5 0 -9 458 -9 1150 l0 1150 140 0 140 0 0
-1150z m-3650 -1350 l0 -80 -180 0 -180 0 0 80 0 80 180 0 180 0 0 -80z m820
0 l0 -80 -180 0 -180 0 0 80 0 80 180 0 180 0 0 -80z m820 0 l0 -80 -180 0
-180 0 0 80 0 80 180 0 180 0 0 -80z m820 0 l0 -80 -180 0 -180 0 0 80 0 80
180 0 180 0 0 -80z m820 0 l0 -80 -180 0 -180 0 0 80 0 80 180 0 180 0 0 -80z
m820 0 l0 -80 -180 0 -180 0 0 80 0 80 180 0 180 0 0 -80z"/>
</g>
</svg>
