<?xml version="1.0" standalone="no"?>
<!DOCTYPE svg PUBLIC "-//W3C//DTD SVG 20010904//EN"
 "http://www.w3.org/TR/2001/REC-SVG-20010904/DTD/svg10.dtd">
<svg version="1.0" xmlns="http://www.w3.org/2000/svg"
 width="512.000000pt" height="512.000000pt" viewBox="0 0 512.000000 512.000000"
 preserveAspectRatio="xMidYMid meet">

<g transform="translate(0.000000,512.000000) scale(0.100000,-0.100000)"
fill="#000000" stroke="none">
<path d="M2505 5095 l-25 -24 0 -223 0 -223 -36 -20 c-20 -10 -50 -40 -67 -65
l-32 -45 -3 -168 -3 -168 -64 -40 c-278 -176 -349 -538 -155 -801 43 -59 117
-121 205 -173 16 -10 15 -69 -25 -1070 -23 -583 -43 -1091 -45 -1130 -2 -38
-7 -175 -11 -302 l-7 -233 -64 0 c-114 0 -132 -21 -133 -152 l0 -98 -190 0
c-189 0 -191 0 -215 -25 -16 -15 -25 -36 -25 -55 0 -19 9 -40 25 -55 l24 -25
901 0 901 0 24 25 c33 32 33 78 0 110 -24 25 -26 25 -215 25 l-190 0 0 98 c-1
131 -19 152 -133 152 l-64 0 -7 253 c-4 138 -9 293 -12 342 -9 169 -74 2000
-73 2070 l1 70 76 50 c230 151 309 464 179 709 -42 79 -123 165 -202 215 l-64
40 -3 168 -3 168 -32 45 c-17 25 -47 55 -67 65 l-36 20 0 223 0 223 -25 24
c-15 16 -36 25 -55 25 -19 0 -40 -9 -55 -25z m93 -631 c21 -14 22 -22 22 -140
l0 -124 -60 0 -60 0 0 124 c0 118 1 126 22 140 12 9 29 16 38 16 9 0 26 -7 38
-16z m117 -458 c60 -27 135 -81 135 -97 0 -5 -121 -9 -290 -9 -169 0 -290 4
-290 9 0 25 128 103 197 121 66 16 185 5 248 -24z m229 -282 c3 -9 6 -27 6
-40 l0 -24 -390 0 -390 0 0 24 c0 59 -22 56 390 56 335 0 379 -2 384 -16z
m-24 -231 c0 -3 -14 -28 -31 -54 -41 -64 -100 -116 -168 -148 -49 -23 -68 -26
-161 -26 -93 0 -112 3 -161 26 -68 32 -127 84 -168 148 -17 26 -31 51 -31 54
0 4 162 7 360 7 198 0 360 -3 360 -7z m-290 -445 c0 -29 16 -478 35 -998 19
-520 35 -953 35 -962 0 -16 -13 -18 -141 -18 l-140 0 6 113 c5 103 75 1859 75
1899 0 15 10 18 65 18 l65 0 0 -52z m83 -2310 c4 -95 7 -208 7 -250 l0 -78
-162 0 -161 0 6 188 c4 103 7 215 7 250 l0 62 148 0 149 0 6 -172z m207 -533
l0 -45 -360 0 -360 0 0 45 0 45 360 0 360 0 0 -45z"/>
</g>
</svg>
