<?xml version="1.0" encoding="UTF-8"?>
<svg version="1.1" xmlns="http://www.w3.org/2000/svg" width="512" height="512">
<path d="M0 0 C0.66 -0.0103125 1.32 -0.020625 2 -0.03125 C5.11184168 0.79533294 6.08732431 1.8753566 8 4.5 C8.56757035 7.91176147 8.46453847 11.28423857 8.390625 14.734375 C8.38496521 15.72753723 8.37930542 16.72069946 8.37347412 17.74395752 C8.35110026 20.91313059 8.30090106 24.0811692 8.25 27.25 C8.22993635 29.39972324 8.21168534 31.54946423 8.1953125 33.69921875 C8.15123239 38.96653229 8.08431033 44.23318509 8 49.5 C8.77214844 49.79519531 9.54429687 50.09039062 10.33984375 50.39453125 C16.46908181 52.94163018 19.13505351 56.77010702 22 62.5 C23.25878918 66.19435013 23.11354539 69.79492419 23.09765625 73.671875 C23.0962413 74.3542926 23.09482635 75.03671021 23.09336853 75.73980713 C23.08779084 77.90991684 23.07524254 80.0799217 23.0625 82.25 C23.05748211 83.72525892 23.05291971 85.20051947 23.04882812 86.67578125 C23.03782875 90.28388798 23.02057953 93.89193375 23 97.5 C23.94383545 97.80164063 24.8876709 98.10328125 25.86010742 98.4140625 C36.57652141 102.12035357 45.40528521 112.91620914 50.4375 122.6875 C57.00847882 136.37235903 57.73381724 152.27047445 52.9609375 166.625 C50.47526658 173.03963464 47.40884825 178.24967803 43 183.5 C41.88625 185.0159375 41.88625 185.0159375 40.75 186.5625 C36.35296673 191.79024314 30.07734633 195.52589413 24 198.5 C23.82202156 210.79070946 24.36287788 223.05637702 24.82617188 235.33569336 C24.9150535 237.73850227 25.0037164 240.14131928 25.09217834 242.54414368 C25.30704661 248.36714116 25.52404889 254.19005632 25.74189198 260.0129432 C25.99598998 266.80964147 26.24690766 273.60645607 26.49752873 280.40328331 C26.94509764 292.54032022 27.39441539 304.67729164 27.84521484 316.81420898 C27.88558814 317.90121004 27.88558814 317.90121004 27.92677706 319.01017071 C28.17243269 325.62367917 28.41820912 332.23718315 28.66403961 338.85068512 C28.82765041 343.25226231 28.99123365 347.65384053 29.15478516 352.05541992 C29.1951096 353.14062472 29.1951096 353.14062472 29.23624867 354.24775284 C29.68557307 366.34155693 30.13286736 378.43543528 30.5787034 390.52936846 C30.82860498 397.30594997 31.07959289 404.08248802 31.33323669 410.85893059 C31.57176159 417.23239285 31.80794908 423.60593745 32.04238701 429.97955132 C32.12855482 432.31031113 32.21560156 434.64103866 32.30362129 436.97172928 C32.73801025 448.48581875 33.15077836 459.97569876 33 471.5 C34.03640625 471.45359375 35.0728125 471.4071875 36.140625 471.359375 C37.51038779 471.32184725 38.88018182 471.28544816 40.25 471.25 C40.93191406 471.21648437 41.61382812 471.18296875 42.31640625 471.1484375 C45.46980343 471.08720649 47.6845131 471.32827928 50.46875 472.84375 C52.9365729 477.12466728 52.41752219 481.41118586 52.25 486.25 C52.23195313 487.23355469 52.21390625 488.21710938 52.1953125 489.23046875 C52.14824126 491.65463783 52.08250742 494.07682059 52 496.5 C53.16047852 496.48428955 54.32095703 496.4685791 55.51660156 496.45239258 C59.82528737 496.39806076 64.13394293 496.36363809 68.44287109 496.33520508 C70.30718072 496.32012586 72.17145492 496.29965939 74.03564453 496.27368164 C76.71656033 496.23726004 79.3970068 496.2202651 82.078125 496.20703125 C82.91055725 496.19154739 83.7429895 496.17606354 84.60064697 496.16011047 C88.07655308 496.15910137 90.38291065 496.1771675 93.49902344 497.80737305 C95.91979906 500.5372425 95.93845149 502.93018613 96 506.5 C94.65437601 509.44755732 93.91445456 511.04277272 91 512.5 C88.61615728 512.60181158 86.26127192 512.64339494 83.87698364 512.64044189 C83.13489053 512.64341302 82.39279741 512.64638414 81.62821662 512.6494453 C79.128598 512.65815308 76.62902715 512.65964229 74.12939453 512.66113281 C72.3425079 512.66575949 70.55562227 512.67078395 68.76873779 512.67617798 C63.90510678 512.68931785 59.04148957 512.69574994 54.17784357 512.70018864 C51.1415186 512.7031166 48.10519742 512.70722087 45.06887436 512.71169281 C35.57549148 512.72537148 26.08211726 512.73503651 16.58872521 512.7388947 C5.61765263 512.74337752 -5.35329549 512.76093424 -16.32433021 512.7898953 C-24.79655237 512.81148635 -33.26873946 512.82159759 -41.74098885 512.82293582 C-46.80489195 512.82398563 -51.86867812 512.82993089 -56.93255234 512.84775543 C-61.69479507 512.86419178 -66.4568324 512.86641329 -71.21909332 512.85761642 C-72.96865767 512.85684368 -74.71823286 512.86121985 -76.46776962 512.87107468 C-78.85309884 512.88372466 -81.23769293 512.87795578 -83.62301636 512.86749268 C-84.31815334 512.87554908 -85.01329033 512.88360548 -85.72949207 512.89190602 C-88.71768633 512.86117173 -90.75962329 512.63127404 -93.40246773 511.18796921 C-95.95079505 508.49538007 -95.93757387 506.12071541 -96 502.5 C-94.65437601 499.55244268 -93.91445456 497.95722728 -91 496.5 C-88.08300726 496.41301772 -85.19017452 496.38448077 -82.2734375 496.40234375 C-80.97921371 496.40446617 -80.97921371 496.40446617 -79.65884399 496.40663147 C-76.8975277 496.41223812 -74.13629188 496.42479173 -71.375 496.4375 C-69.5052095 496.44251414 -67.63541774 496.4470772 -65.765625 496.45117188 C-61.17705223 496.46220971 -56.58853977 496.4794788 -52 496.5 C-52.02094727 495.88479492 -52.04189453 495.26958984 -52.06347656 494.63574219 C-52.14677017 491.84066191 -52.19870013 489.04584285 -52.25 486.25 C-52.30027344 484.79787109 -52.30027344 484.79787109 -52.3515625 483.31640625 C-52.44864046 476.27825387 -52.44864046 476.27825387 -50.46875 472.84375 C-47.06708766 470.99221227 -44.01139516 471.06512992 -40.25 471.25 C-39.55261719 471.26804687 -38.85523438 471.28609375 -38.13671875 471.3046875 C-36.42388461 471.35161446 -34.71176176 471.42335395 -33 471.5 C-33.01569865 470.52212981 -33.01569865 470.52212981 -33.03171444 469.52450466 C-33.13033791 457.60601985 -32.57021232 445.70953886 -32.09790039 433.80297852 C-32.00079492 431.30837292 -31.90390223 428.81375903 -31.8072052 426.31913757 C-31.57226082 420.27421596 -31.33492453 414.22939279 -31.09632618 408.18461467 C-30.90243859 403.27177408 -30.70946159 398.35889853 -30.51711845 393.44599724 C-30.48965356 392.74454919 -30.46218868 392.04310114 -30.43389152 391.32039709 C-30.37808663 389.89513344 -30.32228237 388.46986978 -30.26647871 387.04460608 C-29.7444134 373.71415278 -29.21903705 360.3838315 -28.69264089 347.05354863 C-28.2113436 334.86269336 -27.73424146 322.67167809 -27.25909872 310.48058153 C-26.77043979 297.94366871 -26.27895834 285.40686946 -25.78441805 272.87018722 C-25.50711039 265.83912337 -25.23091938 258.80801994 -24.95768929 251.77679634 C-24.70104721 245.17332147 -24.44043119 238.57001173 -24.17712212 231.96679878 C-24.08106782 229.54246173 -23.98631802 227.11807259 -23.89295959 224.69363022 C-23.76545925 221.38789292 -23.63327438 218.08237521 -23.49989319 214.77687073 C-23.46389655 213.81491447 -23.42789991 212.8529582 -23.39081246 211.86185175 C-23.20295499 207.32821674 -22.88752438 202.9639627 -22 198.5 C-22.87914062 198.2421875 -23.75828125 197.984375 -24.6640625 197.71875 C-37.81607979 192.91379755 -45.85391212 181.54410682 -51.7734375 169.45703125 C-57.44041682 155.79491868 -57.26831519 140.291019 -52.375 126.4375 C-46.92292295 113.83083857 -37.22703588 103.60234149 -25 97.5 C-24.34 97.5 -23.68 97.5 -23 97.5 C-23.01571045 96.6028125 -23.0314209 95.705625 -23.04760742 94.78125 C-23.09905641 91.41904804 -23.1365042 88.0572708 -23.16479492 84.69482422 C-23.17978417 83.24586339 -23.20018271 81.79694717 -23.22631836 80.34814453 C-23.38723872 71.19146064 -23.41684979 63.68418589 -18.1875 55.75 C-15.67510466 53.16582193 -13.10477017 51.3223651 -10 49.5 C-9.34 49.5 -8.68 49.5 -8 49.5 C-8.00888245 48.94511902 -8.01776489 48.39023804 -8.0269165 47.81854248 C-8.11540593 42.04368389 -8.17574053 36.26901784 -8.21972656 30.49365234 C-8.23984276 28.33829933 -8.26713925 26.18300089 -8.30175781 24.02783203 C-8.35027486 20.92987605 -8.37296873 17.83264154 -8.390625 14.734375 C-8.41127014 13.77070007 -8.43191528 12.80702515 -8.45318604 11.81414795 C-8.45542998 5.12495764 -8.45542998 5.12495764 -6.10058594 1.89355469 C-3.8377229 0.39234337 -2.69182409 -0.04205975 0 0 Z M-4.66918945 67.19238281 C-6.28632355 69.99648325 -6.34665116 71.70093051 -6.29296875 74.921875 C-6.28330078 75.94667969 -6.27363281 76.97148438 -6.26367188 78.02734375 C-6.23853516 79.09082031 -6.21339844 80.15429688 -6.1875 81.25 C-6.17396484 82.32894531 -6.16042969 83.40789062 -6.14648438 84.51953125 C-6.11116973 87.17990121 -6.05736391 89.84001413 -6 92.5 C-2.04 92.5 1.92 92.5 6 92.5 C6.08087991 88.74956845 6.14044597 85.00087814 6.1875 81.25 C6.21263672 80.18652344 6.23777344 79.12304688 6.26367188 78.02734375 C6.27333984 77.00253906 6.28300781 75.97773437 6.29296875 74.921875 C6.3086792 73.97924805 6.32438965 73.03662109 6.34057617 72.06542969 C5.93646146 69.02138855 5.14427588 67.67407056 3 65.5 C-0.42046859 64.9299219 -2.16200521 64.65036129 -4.66918945 67.19238281 Z M-28 120.5 C-28 120.83 -28 121.16 -28 121.5 C-9.52 121.5 8.96 121.5 28 121.5 C23.77230469 117.18991317 23.77230469 117.18991317 19.125 113.8125 C18.20074219 113.21888672 18.20074219 113.21888672 17.2578125 112.61328125 C1.8885008 105.03498742 -15.9389911 109.15371756 -28 120.5 Z M-38 138.5 C-38.33 140.81 -38.66 143.12 -39 145.5 C-13.26 145.5 12.48 145.5 39 145.5 C38.505 142.035 38.505 142.035 38 138.5 C12.92 138.5 -12.16 138.5 -38 138.5 Z M-35 162.5 C-32.11337717 171.15986849 -26.20867938 178.03353654 -18.15625 182.5390625 C-6.89022732 187.55979 3.27113363 187.70779182 14.8828125 183.828125 C22.08075796 180.76133119 28.76998014 175.14321152 33 168.5 C33.66 166.52 34.32 164.54 35 162.5 C11.9 162.5 -11.2 162.5 -35 162.5 Z M-5 203.5 C-6.45527199 206.41054398 -6.25672283 209.06129554 -6.38600159 212.31207275 C-6.41544088 213.02104792 -6.44488017 213.73002309 -6.47521156 214.46048236 C-6.57323446 216.84882456 -6.66464682 219.23737456 -6.75610352 221.62597656 C-6.82483291 223.3344118 -6.89395444 225.04283131 -6.96343994 226.75123596 C-7.15157118 231.40724064 -7.3338554 236.06345771 -7.51489758 240.71974277 C-7.70563109 245.60630209 -7.90089081 250.4926809 -8.09544373 255.37908936 C-8.42230986 263.60757943 -8.74532204 271.83621432 -9.06616211 280.06494141 C-9.43514911 289.52712769 -9.81046859 298.98904645 -10.18923432 308.45084596 C-10.55470942 317.58519535 -10.91521021 326.71973511 -11.27366447 335.85436249 C-11.42551817 339.72143976 -11.57911027 343.58844188 -11.7341938 347.45539093 C-12.49565216 366.48055605 -13.2107423 385.45505889 -13 404.5 C-4.09 404.5 4.82 404.5 14 404.5 C13.10875482 379.47394031 12.21374482 354.44801846 11.31375217 329.42227173 C10.89596008 317.80225315 10.47949568 306.18218982 10.06616211 294.56201172 C9.70587595 284.43326736 9.34309332 274.30461602 8.97731918 264.17606831 C8.78375264 258.81365989 8.59143207 253.45121335 8.40210152 248.08865356 C8.22378251 243.03910155 8.04212041 237.98968075 7.85791779 232.94034004 C7.79097672 231.08930412 7.72524657 229.23822393 7.66083336 227.38709831 C7.57251613 224.85428812 7.47979024 222.32167516 7.38600159 219.7890625 C7.36167779 219.06141221 7.33735399 218.33376192 7.31229311 217.58406162 C7.13050531 212.84049601 6.64288335 208.20391933 6 203.5 C2.37 203.5 -1.26 203.5 -5 203.5 Z M-14 421.5 C-14.78839578 430.59437745 -14.78839578 430.59437745 -15.31640625 439.68359375 C-15.35830078 440.71419922 -15.40019531 441.74480469 -15.44335938 442.80664062 C-15.48267578 443.83982422 -15.52199219 444.87300781 -15.5625 445.9375 C-15.60568359 446.96681641 -15.64886719 447.99613281 -15.69335938 449.05664062 C-15.98842335 456.55501231 -16 463.98279304 -16 471.5 C-5.44 471.5 5.12 471.5 16 471.5 C16 462.38319426 15.89386095 453.35006191 15.5625 444.25 C15.52318359 443.04859375 15.48386719 441.8471875 15.44335938 440.609375 C15.40146484 439.43375 15.35957031 438.258125 15.31640625 437.046875 C15.27974854 436.00370117 15.24309082 434.96052734 15.20532227 433.88574219 C14.95423043 429.74526466 14.45807925 425.62271326 14 421.5 C4.76 421.5 -4.48 421.5 -14 421.5 Z M-36 488.5 C-36 491.14 -36 493.78 -36 496.5 C-12.24 496.5 11.52 496.5 36 496.5 C36 493.86 36 491.22 36 488.5 C12.24 488.5 -11.52 488.5 -36 488.5 Z " fill="#FFFFFF" transform="translate(256,-0.5)"/>
</svg>
